<svg xmlns="http://www.w3.org/2000/svg" viewBox="0 0 94 14.12"><defs><style>.cls-1{fill:#2a2a2a;}</style></defs><title>Artboard 19</title><g id="Layer_3" data-name="Layer 3"><path class="cls-1" d="M8.82,4.86a3.94,3.94,0,0,1,1,2.84V14H7.35V8.42a2.28,2.28,0,0,0-.6-1.67A2.2,2.2,0,0,0,5.1,6.14,2.49,2.49,0,0,0,3.16,7,3,3,0,0,0,2.45,9v5H0V3.91H2.45V5.8a3.83,3.83,0,0,1,3.63-2A3.61,3.61,0,0,1,8.82,4.86Z"/><path class="cls-1" d="M23.68,3.91h2.45V14H23.68Z"/><path class="cls-1" d="M33,4.35a4.08,4.08,0,0,1,2-.54V6.19a3.33,3.33,0,0,0-2.5.73,2.8,2.8,0,0,0-.93,2.22V14H29.17V3.91h2.45V5.85A3.65,3.65,0,0,1,33,4.35Z"/><path class="cls-1" d="M41.25,6a4.87,4.87,0,0,0-1.44-.25,2,2,0,0,0-1,.22.72.72,0,0,0-.37.67.79.79,0,0,0,.46.73,7.44,7.44,0,0,0,1.46.54,14.1,14.1,0,0,1,1.74.63,3.27,3.27,0,0,1,1.18.93,2.48,2.48,0,0,1,.5,1.61,2.6,2.6,0,0,1-1.13,2.27,4.86,4.86,0,0,1-2.85.79,7.23,7.23,0,0,1-2.28-.37,5.38,5.38,0,0,1-1.89-1L36.48,11a5,5,0,0,0,1.62.92,5.43,5.43,0,0,0,1.79.33A2.15,2.15,0,0,0,41,12a.77.77,0,0,0,.41-.71.86.86,0,0,0-.47-.79,8.37,8.37,0,0,0-1.53-.59,13,13,0,0,1-1.66-.59,3,3,0,0,1-1.11-.89,2.43,2.43,0,0,1-.47-1.56,2.63,2.63,0,0,1,1.09-2.28A4.54,4.54,0,0,1,40,3.8a7,7,0,0,1,2,.28,6.13,6.13,0,0,1,1.73.79l-.89,1.78A7.27,7.27,0,0,0,41.25,6Z"/><path class="cls-1" d="M51.8,13.39a4.79,4.79,0,0,1-2.53.74,3,3,0,0,1-2.13-.76,2.92,2.92,0,0,1-.83-2.26v-5H44.88l0-1.79H46.3V1.55h2.44V4.32h2.89V6.12H48.74v4.55a1.47,1.47,0,0,0,.26,1,1,1,0,0,0,.79.29,3.52,3.52,0,0,0,1.44-.42Z"/><path class="cls-1" d="M63.05,3.91V14H60.58V12.14a3.63,3.63,0,0,1-3.51,2,3.51,3.51,0,0,1-2.68-1,4,4,0,0,1-1-2.83V3.91h2.47V9.52a2.31,2.31,0,0,0,.58,1.66,2.1,2.1,0,0,0,1.6.6A2.34,2.34,0,0,0,59.9,11a3.1,3.1,0,0,0,.68-2.06v-5Z"/><path class="cls-1" d="M75.85,0V14H73.4V12.39A3.65,3.65,0,0,1,72,13.68a4.28,4.28,0,0,1-2,.44,4.8,4.8,0,0,1-2.52-.65,4.44,4.44,0,0,1-1.69-1.83,5.86,5.86,0,0,1-.6-2.71,5.78,5.78,0,0,1,.59-2.67,4.35,4.35,0,0,1,1.68-1.8,4.79,4.79,0,0,1,2.48-.64,4.31,4.31,0,0,1,2,.45,3.85,3.85,0,0,1,1.44,1.3V0ZM72.6,11.21A3.12,3.12,0,0,0,73.4,9a3.12,3.12,0,0,0-.8-2.22,2.7,2.7,0,0,0-2.07-.86,2.67,2.67,0,0,0-2.06.86A3.21,3.21,0,0,0,67.66,9a3.21,3.21,0,0,0,.81,2.22,2.67,2.67,0,0,0,2.06.86A2.7,2.7,0,0,0,72.6,11.21Z"/><path class="cls-1" d="M78.63,3.91h2.45V14H78.63Z"/><path class="cls-1" d="M91.36,4.11A4.82,4.82,0,0,1,93.3,6,5.45,5.45,0,0,1,94,8.75a5.54,5.54,0,0,1-.7,2.8,4.8,4.8,0,0,1-1.94,1.88,6,6,0,0,1-2.87.67,6.09,6.09,0,0,1-2.9-.67,4.78,4.78,0,0,1-2-1.88,5.54,5.54,0,0,1-.7-2.8A5.45,5.45,0,0,1,83.64,6a4.8,4.8,0,0,1,2-1.87,6.09,6.09,0,0,1,2.9-.67A6,6,0,0,1,91.36,4.11Zm-5,2.39a3.23,3.23,0,0,0-.82,2.29,3.23,3.23,0,0,0,.82,2.29,2.81,2.81,0,0,0,2.16.88,2.77,2.77,0,0,0,2.12-.88,3.23,3.23,0,0,0,.82-2.29,3.23,3.23,0,0,0-.82-2.29,2.77,2.77,0,0,0-2.12-.88A2.81,2.81,0,0,0,86.34,6.5Z"/><path class="cls-1" d="M19.49,4.11A4.82,4.82,0,0,1,21.43,6a5.45,5.45,0,0,1,.7,2.77,5.54,5.54,0,0,1-.7,2.8,4.8,4.8,0,0,1-1.94,1.88,6,6,0,0,1-2.87.67,6.09,6.09,0,0,1-2.9-.67,4.78,4.78,0,0,1-2-1.88,5.54,5.54,0,0,1-.7-2.8A5.45,5.45,0,0,1,11.77,6a4.8,4.8,0,0,1,2-1.87,6.09,6.09,0,0,1,2.9-.67A6,6,0,0,1,19.49,4.11Zm-5,2.39a3.23,3.23,0,0,0-.82,2.29,3.23,3.23,0,0,0,.82,2.29,2.81,2.81,0,0,0,2.16.88,2.77,2.77,0,0,0,2.12-.88,3.23,3.23,0,0,0,.82-2.29,3.23,3.23,0,0,0-.82-2.29,2.77,2.77,0,0,0-2.12-.88A2.81,2.81,0,0,0,14.46,6.5Z"/></g></svg>